<?xml version="1.0" encoding="utf-8"?>
<!-- Generator: Adobe Illustrator 16.0.0, SVG Export Plug-In . SVG Version: 6.00 Build 0)  -->
<!DOCTYPE svg PUBLIC "-//W3C//DTD SVG 1.1//EN" "http://www.w3.org/Graphics/SVG/1.1/DTD/svg11.dtd">
<svg version="1.1" id="Capa_1" xmlns="http://www.w3.org/2000/svg" xmlns:xlink="http://www.w3.org/1999/xlink" x="0px" y="0px"
	 width="100px" height="100px" viewBox="0 0 100 100" enable-background="new 0 0 100 100" xml:space="preserve">
<path display="none" fill="#F2F2F2" d="M79.492,100H20.508C9.2,100,0,90.801,0,79.492V20.508C0,9.2,9.2,0,20.508,0h58.984
	C90.801,0,100,9.2,100,20.508v58.984C100,90.801,90.801,100,79.492,100z"/>
<path display="none" fill="#E5E5E5" d="M79.492,0H50v100h29.492C90.801,100,100,90.801,100,79.492V20.508C100,9.2,90.801,0,79.492,0
	z"/>
<path fill="#FFAB15" d="M50.539,43.817H49.46c-5.394,0-9.766-4.372-9.766-9.766v-11.59c0-5.394,4.372-9.766,9.766-9.766h1.079
	c5.394,0,9.766,4.372,9.766,9.766v11.59C60.305,39.445,55.934,43.817,50.539,43.817z"/>
<path fill="#FF6849" d="M46.009,45.246l-0.763,0.763c-3.813,3.814-9.997,3.814-13.811,0l-8.196-8.196
	c-3.813-3.813-3.813-9.997,0-13.811l0.763-0.763c3.813-3.813,9.997-3.813,13.811,0l8.196,8.196
	C49.823,35.25,49.823,41.433,46.009,45.246z"/>
<path fill="#FF5AD4" d="M43.817,49.46v1.079c0,5.395-4.372,9.766-9.766,9.766h-11.59c-5.394,0-9.766-4.371-9.766-9.766V49.46
	c0-5.393,4.372-9.766,9.766-9.766h11.59C39.445,39.695,43.817,44.067,43.817,49.46z"/>
<path fill="#CD67E5" d="M45.246,53.99l0.763,0.764c3.814,3.813,3.814,9.996,0,13.811l-8.196,8.195
	c-3.813,3.814-9.997,3.814-13.811,0l-0.763-0.763c-3.813-3.813-3.813-9.997,0-13.811l8.196-8.196
	C35.25,50.177,41.433,50.177,45.246,53.99z"/>
<path fill="#00C3FF" d="M49.46,56.184h1.079c5.395,0,9.766,4.371,9.766,9.766v11.59c0,5.394-4.371,9.766-9.766,9.766H49.46
	c-5.393,0-9.766-4.372-9.766-9.766v-11.59C39.695,60.555,44.067,56.184,49.46,56.184z"/>
<path fill="#39E5D0" d="M53.99,54.754l0.764-0.764c3.813-3.813,9.996-3.813,13.811,0l8.195,8.196c3.814,3.813,3.814,9.997,0,13.811
	l-0.763,0.763c-3.813,3.814-9.997,3.814-13.811,0l-8.196-8.195C50.177,64.75,50.177,58.567,53.99,54.754z"/>
<path fill="#BEE548" d="M56.184,50.539V49.46c0-5.394,4.371-9.766,9.766-9.766h11.59c5.394,0,9.766,4.372,9.766,9.766v1.079
	c0,5.394-4.372,9.766-9.766,9.766h-11.59C60.555,60.305,56.184,55.934,56.184,50.539z"/>
<path fill="#FFDC40" d="M54.754,46.009l-0.764-0.763c-3.813-3.813-3.813-9.997,0-13.811l8.196-8.196
	c3.813-3.813,9.997-3.813,13.811,0l0.763,0.763c3.814,3.813,3.814,9.997,0,13.811l-8.195,8.196
	C64.75,49.823,58.567,49.823,54.754,46.009z"/>
<path fill="#FF9400" d="M50.539,12.695H50v31.122h0.539c5.394,0,9.766-4.372,9.766-9.766v-11.59
	C60.305,17.067,55.934,12.695,50.539,12.695z"/>
<path fill="#00AAF0" d="M50.539,56.184H50v31.121h0.539c5.394,0,9.766-4.372,9.766-9.766v-11.59
	C60.305,60.555,55.934,56.184,50.539,56.184z"/>
<path fill="#FD4B2D" d="M39.695,25.121v8.93c0,4.666,3.273,8.565,7.647,9.533c2.409-3.778,1.966-8.849-1.333-12.148L39.695,25.121z"
	/>
<path fill="#E08344" d="M53.99,31.436c-3.299,3.299-3.741,8.371-1.332,12.148c4.374-0.968,7.646-4.867,7.646-9.533v-8.93
	L53.99,31.436z"/>
<path fill="#82B415" d="M56.416,47.342c3.777,2.409,8.85,1.966,12.148-1.333l6.314-6.314h-8.93
	C61.283,39.695,57.384,42.968,56.416,47.342z"/>
<path fill="#66CC70" d="M56.416,52.658c0.968,4.374,4.867,7.646,9.533,7.646h8.93l-6.314-6.314
	C65.266,50.691,60.193,50.249,56.416,52.658z"/>
<path fill="#107BE5" d="M60.305,65.949c0-4.666-3.272-8.565-7.646-9.533c-2.41,3.777-1.967,8.85,1.332,12.148l6.314,6.314V65.949
	L60.305,65.949z"/>
<path fill="#A056B2" d="M39.695,65.949v8.93l6.315-6.314c3.299-3.3,3.742-8.371,1.333-12.148
	C42.968,57.384,39.695,61.283,39.695,65.949z"/>
<path fill="#FF26BE" d="M31.436,53.99l-6.314,6.314h8.93c4.666,0,8.565-3.272,9.533-7.646C39.806,50.249,34.735,50.691,31.436,53.99
	z"/>
<path fill="#EA596E" d="M43.584,47.342c-0.968-4.375-4.867-7.647-9.533-7.647h-8.93l6.314,6.315
	C34.735,49.309,39.806,49.751,43.584,47.342z"/>
</svg>
